<svg xmlns="http://www.w3.org/2000/svg" width="77" height="86" viewBox="0 0 77 86">
    <g fill="none" fill-rule="evenodd">
        <g>
            <g>
                <path fill="#3D9090" d="M19 79v4.806l-.013.166C18.863 85.122 18.016 86 17 86c-1.064 0-1.943-.964-2-2.194V79h4zm4.741-18c4.803.12 8.349 3.58 8.257 8.044-.032 4.398-3.744 7.95-8.315 7.956H10.14C8.94 76.938 8 75.984 8 74.828c0-1.157.94-2.11 2.14-2.173h13.543c2.107-.02 3.803-1.672 3.799-3.699.072-2.031-1.57-3.548-3.839-3.611h-2.157V61zM19 53v17h-4V53h4zm4.279-21v.013c5.369 0 9.721 4.35 9.721 9.715 0 5.366-4.352 9.716-9.721 9.716H9.799c-2.506 0-4.537 2.03-4.537 4.534S7.293 60.51 9.8 60.51h2.249V65h-2.25C4.903 64.869 1 60.864 1 55.968s3.902-8.901 8.799-9.032h13.48c2.815-.1 5.046-2.409 5.046-5.224 0-2.815-2.231-5.124-5.046-5.223h-2.23V32h2.23zM19 23v21h-4V23h4zm11.954-7.477c1.09-3.114 4.242-4.983 7.466-4.425 3.224.559 5.58 3.381 5.58 6.685 0 3.303-2.356 6.126-5.58 6.684-3.224.559-6.377-1.31-7.466-4.425H10.137c-3.127 0-5.662 2.561-5.662 5.72 0 3.158 2.535 5.719 5.662 5.719h2.234V36h-2.234C4.54 36 0 31.416 0 25.762c0-5.655 4.539-10.239 10.137-10.239zM39.844.001c4.886-.05 9.539 2.078 12.691 5.804 2.871 3.413 4.451 7.724 4.465 12.18.003 4.69-1.791 9.202-5.014 12.614-3.146 3.422-7.58 5.378-12.232 5.398h-2.093c-.829.044-1.614-.372-2.042-1.081-.428-.71-.428-1.597 0-2.307s1.213-1.126 2.042-1.081h2.093c6.946 0 12.762-6.184 12.762-13.542 0-6.661-4.737-13.542-12.671-13.542H19.478v9.19H15V0zM37.27 15.524l-.148.002c-.537.031-1.046.257-1.434.64-.43.424-.672 1.006-.672 1.614-.003.915.542 1.742 1.379 2.095.837.352 1.801.16 2.443-.487.642-.646.835-1.62.489-2.466-.346-.847-1.164-1.399-2.07-1.399l.013.001z" transform="translate(-438 -85) translate(438 85)"/>
                <g>
                    <path fill="#D74C82" d="M23.557 1C28.352 1 31 4.692 31 9.767 31 15.232 26 21.309 16 28 6 21.31 1 15.232 1 9.767 1 4.692 3.648 1 8.443 1c2.963 0 5.99 3.225 7.557 5.623C17.567 4.225 20.594 1 23.557 1z" transform="translate(-438 -85) translate(438 85) translate(45 56)"/>
                    <path fill="#FFF" fill-rule="nonzero" d="M23.59 0c-1.629 0-3.293.78-4.917 2.137l-.094.08c-.914.777-1.79 1.722-2.55 2.713l-.03.039-.029-.04c-.786-1.025-1.696-2-2.643-2.792C11.703.78 10.039 0 8.41 0 3.203 0 0 3.954 0 9.746c0 5.895 5.202 12.218 15.484 19.097.312.21.72.21 1.032 0C26.798 21.965 32 15.641 32 9.746 32 3.954 28.797 0 23.59 0zm0 1.883c4.083 0 6.542 3.037 6.542 7.863l-.001.153c-.094 4.945-4.745 10.644-14.065 16.982l-.066.045-.066-.045C6.518 20.478 1.868 14.726 1.868 9.746c0-4.826 2.46-7.863 6.542-7.863 2.155 0 4.89 2.287 6.81 5.224.37.565 1.19.565 1.56 0 1.919-2.936 4.655-5.224 6.81-5.224z" transform="translate(-438 -85) translate(438 85) translate(45 56)"/>
                </g>
            </g>
        </g>
    </g>
</svg>
