<svg xmlns="http://www.w3.org/2000/svg" width="27" height="27" viewBox="0 0 27 27">
    <g fill="none" fill-rule="evenodd">
        <g fill="#E45867">
            <g>
                <g>
                    <path d="M13.3 26.6c-3.529.004-6.914-1.396-9.409-3.891C1.396 20.214-.004 16.829 0 13.3.005 7.92 3.248 3.073 8.219 1.016 13.189-1.04 18.909.097 22.714 3.9c5.181 5.2 5.181 13.61 0 18.81-2.492 2.503-5.882 3.904-9.414 3.89zm0-23.942c-2.8.001-5.484 1.124-7.451 3.118-2 1.993-3.124 4.7-3.124 7.524 0 2.823 1.124 5.53 3.124 7.523 1.967 1.993 4.65 3.115 7.451 3.116 5.876 0 10.64-4.764 10.64-10.64S19.176 2.659 13.3 2.659v-.001zm0 18.538c-1.031-.026-1.869-.842-1.922-1.872.033-1.038.885-1.862 1.923-1.862s1.89.824 1.923 1.862c-.052 1.032-.89 1.85-1.924 1.876v-.004zm0-5.82c-.69-.009-1.253-.556-1.282-1.245L11.7 6.648c.019-.886.715-1.61 1.6-1.661.435 0 .852.177 1.153.49.302.313.464.736.447 1.171l-.32 7.485c.01.34-.122.667-.366.904-.243.237-.575.36-.914.34v-.001z" transform="translate(-332 -429) translate(25 255) translate(0 150) translate(307 24)"/>
                </g>
            </g>
        </g>
    </g>
</svg>
