<svg id="Layer_1" data-name="Layer 1" xmlns="http://www.w3.org/2000/svg" viewBox="0 0 384 102"><defs><style>.cls-1{fill:#1a1a1a;}.cls-2{fill:#69bbbb;}</style></defs><title>logo-black-big@2x</title><path class="cls-1" d="M132.59,48.83a11.66,11.66,0,0,1-11.87,11.63h-5.08V71.11h-7.75V37.2h12.83A11.65,11.65,0,0,1,132.59,48.83Zm-7.75,0a4.14,4.14,0,0,0-4.12-4.36h-5.08v8.72h5.08A4.14,4.14,0,0,0,124.84,48.83Z"/><path class="cls-1" d="M148.15,46.41v8.23c-3-.48-7.26.73-7.26,5.52v11h-7.27V46.89h7.27V51.2C141.86,48,145.1,46.41,148.15,46.41Z"/><path class="cls-1" d="M148.21,59a12.84,12.84,0,1,1,12.84,12.79A12.69,12.69,0,0,1,148.21,59Zm18.41,0a5.58,5.58,0,1,0-5.57,5.72A5.43,5.43,0,0,0,166.62,59Z"/><path class="cls-1" d="M174.65,54.16a17.19,17.19,0,0,1,17.63-17.64,16.93,16.93,0,0,1,14.54,7.85l-6.69,3.88a8.76,8.76,0,0,0-7.85-4.17c-6,0-9.88,4-9.88,10.08s3.87,10.07,9.88,10.07a8.72,8.72,0,0,0,7.85-4.16l6.69,3.87a16.8,16.8,0,0,1-14.54,7.85A17.18,17.18,0,0,1,174.65,54.16Z"/><path class="cls-1" d="M233.15,46.89V71.11h-7.27V68.84a9.08,9.08,0,0,1-7.21,3c-6.35,0-11.58-5.57-11.58-12.79s5.23-12.79,11.58-12.79a9.08,9.08,0,0,1,7.21,3V46.89ZM225.88,59a5.77,5.77,0,1,0-11.53,0,5.77,5.77,0,1,0,11.53,0Z"/><path class="cls-1" d="M251,46.41v8.23c-3-.48-7.27.73-7.27,5.52v11H236.5V46.89h7.27V51.2C244.74,48,248,46.41,251,46.41Z"/><path class="cls-1" d="M264.63,65.3a6.3,6.3,0,0,0,4.65-1.84l5.82,3.34c-2.38,3.3-6,5-10.57,5-8.28,0-13.42-5.57-13.42-12.79A12.42,12.42,0,0,1,264,46.21c7.07,0,12.31,5.48,12.31,12.79a14.36,14.36,0,0,1-.29,2.91h-17.2C259.74,64.43,262,65.3,264.63,65.3Zm4.46-8.82a5.46,5.46,0,0,0-10.42,0Z"/><path class="cls-1" d="M314.74,56.24V71.11h-7.27V56.87c0-2.42-1.16-4-3.48-4s-3.78,1.69-3.78,4.55V71.11h-7.27V56.87c0-2.42-1.16-4-3.49-4s-3.78,1.69-3.78,4.55V71.11H278.4V46.89h7.27v2.23c1.12-1.65,3.25-2.91,6.49-2.91a7.21,7.21,0,0,1,6.35,3.2c1.36-1.94,3.59-3.2,7-3.2C311.11,46.21,314.74,50.18,314.74,56.24Z"/><path class="cls-1" d="M330.07,65.3a6.29,6.29,0,0,0,4.65-1.84l5.82,3.34c-2.38,3.3-6,5-10.56,5-8.29,0-13.42-5.57-13.42-12.79a12.42,12.42,0,0,1,12.88-12.79c7.08,0,12.31,5.48,12.31,12.79a14.36,14.36,0,0,1-.29,2.91h-17.2C325.18,64.43,327.41,65.3,330.07,65.3Zm4.46-8.82a5.46,5.46,0,0,0-10.42,0Z"/><path class="cls-1" d="M367.1,56.24V71.11h-7.27V57.31c0-3-1.88-4.41-4.21-4.41-2.67,0-4.51,1.55-4.51,5V71.11h-7.26V46.89h7.26v2.28c1.31-1.8,3.73-3,6.93-3C362.94,46.21,367.1,49.7,367.1,56.24Z"/><path class="cls-1" d="M379,53.87v8.57c0,2.09,1.79,2.28,5,2.09v6.58c-9.5,1-12.26-1.89-12.26-8.67V53.87h-3.87v-7h3.87v-4.6L379,40.11v6.78h5v7Z"/><path class="cls-2" d="M27.94,37.72H25.3V43h2.64a6.19,6.19,0,0,1,0,12.38H12a10.71,10.71,0,0,0,0,21.42h2.66V71.52H12a5.39,5.39,0,0,1,0-10.78h16a11.51,11.51,0,0,0,0-23Z"/><path class="cls-2" d="M28,71.52H25.35v5.32H27.9a4.35,4.35,0,0,1,4.52,4.42,4.52,4.52,0,0,1-4.48,4.53H12a2.66,2.66,0,0,0,0,5.32h16a9.81,9.81,0,0,0,9.8-9.74A9.62,9.62,0,0,0,28,71.52Z"/><polygon class="cls-2" points="17.41 50.04 17.41 52.7 22.73 52.7 22.73 50.04 22.73 29.57 22.73 26.91 17.41 26.91 17.41 29.57 17.41 50.04"/><polygon class="cls-2" points="22.73 80.47 22.73 66.26 22.73 66.01 22.73 63.34 17.41 63.34 17.41 66.01 17.41 66.26 17.41 80.47 17.41 83.13 22.73 83.13 22.73 80.47"/><path class="cls-2" d="M62,6.94A19.46,19.46,0,0,0,46.93,0H17.41V16.27h5.32V5.32h24.2C56.36,5.32,62,13.52,62,21.44c0,8.77-7,16.17-15.17,16.17H44.33a2.66,2.66,0,1,0,0,5.32h2.49a19.86,19.86,0,0,0,14.54-6.42,21.94,21.94,0,0,0,6-15.07A22.7,22.7,0,0,0,62,6.94Z"/><path class="cls-2" d="M12.05,43h2.66V37.72H12.06a6.74,6.74,0,1,1,0-13.47H36.81a8,8,0,1,0,0-5.32H22.73v0H17.41v0H12.06a12.06,12.06,0,1,0,0,24.11ZM44.33,18.93a2.66,2.66,0,1,1-2.66,2.66A2.66,2.66,0,0,1,44.33,18.93Z"/><path class="cls-2" d="M17.41,96.17v3.06h0a2.65,2.65,0,0,0,5.3,0h0V99.1h0V93.77H17.41Z"/></svg>