<?xml version="1.0" encoding="UTF-8"?>
<svg width="24px" height="24px" viewBox="0 0 24 24" version="1.1" xmlns="http://www.w3.org/2000/svg" xmlns:xlink="http://www.w3.org/1999/xlink">
    <title>Icon / All / Manual reminder CC</title>
    <g stroke="none" stroke-width="1" fill="none" fill-rule="evenodd">
        <path d="M19.5,21.0007439 C18.79245,21.0034733 14.0266762,21.0678539 12.961792,21.0678539 C11.8969078,21.0678539 7.22507477,17.1992626 7.31410217,16.1364956 C7.40312958,15.0737286 8.20709991,14.7364979 8.83256531,14.9116554 C9.24954224,15.0284271 10.3053538,15.3912086 12,16 L12.0039291,7.00428772 C12.0037346,5.68575239 12.5024249,5.01765648 13.5,5 C14.4975751,4.98234352 14.9975751,5.65065432 15,7.0049324 L15,11.5 C15.9626719,11.5101891 16.6293386,11.5101891 17,11.5 C17.5559921,11.4847164 20.2585602,13.4497719 20.7477112,14.2285461 C21.2368622,15.0073204 20.20755,20.9980145 19.5,21.0007439 Z" stroke="#000000" stroke-width="1.5" stroke-linecap="round" stroke-linejoin="round"></path>
        <path d="M5.5,4.5 C3.568,4.5 2,6.068 2,8 C2,9.932 3.568,11.5 5.5,11.5 C7.432,11.5 9,9.932 9,8 C9,6.068 7.432,4.5 5.5,4.5 Z M6.914,9.421 C6.774,9.561 6.557,9.561 6.417,9.421 L5.248,8.252 C5.178,8.182 5.143,8.091 5.143,8 L5.143,6.25 C5.143,6.054 5.297,5.9 5.493,5.9 L5.493,5.9 C5.689,5.9 5.843,6.054 5.843,6.25 L5.843,7.853 L6.914,8.924 C7.047,9.057 7.047,9.281 6.914,9.421 Z" fill="#000000" fill-rule="nonzero"></path>
    </g>
</svg>